#!OML:ASF H:\Dans Jumps\Project 1\Capture day 1\Session 1\subject.ASF
:FULLY-SPECIFIED
:DEGREES
153
root 0.323501 16.1126 -12.8254 15.849 1.07142 -1.83604
lowerback 9.67331 -0.264285 -0.478379
upperback 2.30247 -0.30968 2.45323
thorax -3.01378 -0.146973 2.85276
lowerneck -20.4508 0.363648 -2.60861
upperneck 25.2348 1.15481 0.831273
head 11.6197 0.37166 0.929389
rclavicle 0 -4.77083e-015
rhumerus -16.2831 -13.1982 -79.7292
rradius 28.1841
rwrist 29.7222
rhand -20.0984 -25.9187
rfingers 7.12502
rthumb 6.2448 -55.8067
lclavicle 0 -4.77083e-015
lhumerus -8.81467 1.85897 86.5067
lradius 21.0489
lwrist 8.90477
lhand -27.1839 -4.66694
lfingers 7.12502
lthumb -0.597705 25.312
rfemur -36.6486 -1.38648 21.4136
rtibia 55.3642
rfoot -30.2047 -15.8964
rtoes -6.73622
lfemur -37.5158 6.34131 -17.8773
ltibia 55.5406
lfoot -26.2273 17.1029
ltoes -14.7024
154
root 0.316932 16.2041 -12.6915 15.6708 1.21856 -1.61037
lowerback 9.29085 -0.318052 -0.609574
upperback 2.1599 -0.396615 2.38136
thorax -2.94499 -0.188864 2.85878
lowerneck -20.3491 0.352084 -2.67602
upperneck 25.5948 1.13713 0.912695
head 11.7374 0.363962 0.970983
rclavicle 1.0138e-014 1.94809e-014
rhumerus -15.9938 -12.2797 -80.0364
rradius 29.0075
rwrist 28.7301
rhand -20.1223 -25.8421
rfingers 7.12502
rthumb 6.22176 -55.7307
lclavicle 1.0138e-014 1.94809e-014
lhumerus -8.66474 0.23143 86.6289
lradius 22.1807
lwrist 10.4722
lhand -27.4333 -4.68541
lfingers 7.12502
lthumb -0.838611 25.2927
rfemur -35.0906 -1.66045 21.2371
rtibia 53.815
rfoot -29.8349 -15.7535
rtoes -6.88996
lfemur -36.0668 6.31798 -17.9828
ltibia 54.114
lfoot -25.669 16.6117
ltoes -15.3895
155
root 0.311355 16.308 -12.5516 15.4589 1.40814 -1.36408
lowerback 8.86026 -0.384599 -0.742106
upperback 2.03525 -0.500264 2.30553
thorax -2.82946 -0.239702 2.86181
lowerneck -20.168 0.33797 -2.74498
upperneck 25.9502 1.11445 0.99026
head 11.8384 0.35344 1.0103
rclavicle -3.97569e-015 9.54166e-015
rhumerus -15.7656 -11.2519 -80.3128
rradius 29.8049
rwrist 27.8223
rhand -20.1024 -25.7543
rfingers 7.12502
rthumb 6.24092 -55.6424
lclavicle -3.97569e-015 9.54166e-015
lhumerus -8.5716 -1.3633 86.731
lradius 23.2738
lwrist 11.7141
lhand -27.6896 -4.81543
lfingers 7.12502
lthumb -1.08615 25.1616
rfemur -33.384 -2.03106 21.0399
rtibia 52.0753
rfoot -29.2898 -15.5031
rtoes -7.12902
lfemur -34.5327 6.30151 -18.1008
ltibia 52.5928
lfoot -24.926 15.9504
ltoes -16.1547
156
root 0.306358 16.4232 -12.4062 15.2215 1.63596 -1.10852
lowerback 8.37508 -0.461292 -0.872063
upperback 1.92534 -0.616333 2.22826
thorax -2.6671 -0.297461 2.86128
lowerneck -19.8998 0.320945 -2.81641
upperneck 26.3013 1.08612 1.06406
head 11.921 0.339708 1.04733
rclavicle -5.1684e-015 9.54166e-015
rhumerus -15.6009 -10.1255 -80.5556
rradius 30.5672
rwrist 27.059
rhand -20.0564 -25.6147
rfingers 7.12502
rthumb 6.28533 -55.5015
lclavicle -5.1684e-015 9.54166e-015
lhumerus -8.53144 -2.92292 86.8212
lradius 24.3204
lwrist 12.6996
lhand -27.928 -4.98301
lfingers 7.12502
lthumb -1.31641 24.9927
rfemur -31.564 -2.48014 20.8285
rtibia 50.187
rfoot -28.5439 -15.124
rtoes -7.51394
lfemur -32.965 6.32439 -18.2221
ltibia 51.0356
lfoot -23.9876 15.0766
ltoes -16.9458
157
root 0.301614 16.5494 -12.2561 14.9624 1.90073 -0.844479
lowerback 7.83606 -0.547607 -1.00523
upperback 1.82993 -0.744241 2.15011
thorax -2.45852 -0.361904 2.86055
lowerneck -19.5475 0.301145 -2.88832
upperneck 26.6543 1.0516 1.1342
head 11.988 0.322628 1.08175
rclavicle 9.24349e-015 -1.43125e-014
rhumerus -15.5001 -8.92923 -80.7653
rradius 31.2938
rwrist 26.4687
rhand -19.9837 -25.4232
rfingers 7.12502
rthumb 6.35558 -55.3079
lclavicle 9.24349e-015 -1.43125e-014
lhumerus -8.52782 -4.43997 86.9021
lradius 25.311
lwrist 13.5249
lhand -28.1207 -5.14038
lfingers 7.12502
lthumb -1.50246 24.8341
rfemur -29.6661 -2.99036 20.5963
rtibia 48.2038
rfoot -27.5689 -14.5925
rtoes -8.06552
lfemur -31.4094 6.40683 -18.3466
ltibia 49.4973
lfoot -22.8506 13.9412
ltoes -17.6715
158
root 0.29654 16.6865 -12.1021 14.6895 2.18715 -0.585668
lowerback 7.2446 -0.63583 -1.13793
upperback 1.74529 -0.87302 2.07097
thorax -2.20896 -0.427589 2.856
lowerneck -19.1073 0.275659 -2.96146
upperneck 27.0098 1.00528 1.20532
head 12.0388 0.300219 1.11452
rclavicle -6.85807e-015 2.78299e-015
rhumerus -15.4605 -7.71338 -80.9462
rradius 31.9791
rwrist 26.0528
rhand -19.8836 -25.1789
rfingers 7.12502
rthumb 6.45217 -55.0607
lclavicle -6.85807e-015 2.78299e-015
lhumerus -8.54934 -5.91999 86.9725
lradius 26.2206
lwrist 14.2231
lhand -28.2681 -5.38462
lfingers 7.12502
lthumb -1.64486 24.5888
rfemur -27.7403 -3.52283 20.3518
rtibia 46.1853
rfoot -26.3361 -13.902
rtoes -8.78731
lfemur -29.9119 6.57781 -18.4606
ltibia 48.0233
lfoot -21.513 12.516
ltoes -18.2617
159
root 0.290941 16.8347 -11.9446 14.4033 2.48429 -0.337209
lowerback 6.60868 -0.721797 -1.26984
upperback 1.67187 -0.996798 1.98975
thorax -1.92279 -0.491597 2.84576
lowerneck -18.5849 0.24306 -3.03579
upperneck 27.3675 0.944447 1.2795
head 12.0742 0.271525 1.14607
rclavicle 1.59028e-015 2.38542e-015
rhumerus -15.4796 -6.52325 -81.1049
rradius 32.6321
rwrist 25.7681
rhand -19.7501 -24.8924
rfingers 7.12502
rthumb 6.58104 -54.7701
lclavicle 1.59028e-015 2.38542e-015
lhumerus -8.57779 -7.34526 87.0313
lradius 27.0487
lwrist 14.8555
lhand -28.3242 -5.63553
lfingers 7.12502
lthumb -1.69902 24.3375
rfemur -25.824 -4.05089 20.0935
rtibia 44.1885
rfoot -24.835 -13.036
rtoes -9.60056
lfemur -28.4873 6.84023 -18.5542
ltibia 46.634
lfoot -19.9503 10.8038
ltoes -18.6456
160
root 0.284679 16.9945 -11.7845 14.0998 2.77111 -0.112839
lowerback 5.93858 -0.797375 -1.3935
upperback 1.61786 -1.10409 1.90621
thorax -1.59816 -0.548338 2.82461
lowerneck -17.992 0.201177 -3.11442
upperneck 27.7154 0.864456 1.36544
head 12.0918 0.23539 1.17951
rclavicle 6.95746e-015 5.96354e-015
rhumerus -15.5413 -5.4068 -81.2493
rradius 33.2575
rwrist 25.5587
rhand -19.5611 -24.6047
rfingers 7.12502
rthumb 6.76353 -54.4767
lclavicle 6.95746e-015 5.96354e-015
lhumerus -8.59463 -8.71268 87.072
lradius 27.8069
lwrist 15.4683
lhand -28.2851 -5.86909
lfingers 7.12502
lthumb -1.66129 24.1042
rfemur -23.9496 -4.53294 19.8294
rtibia 42.2592
rfoot -23.0568 -11.9867
rtoes -10.3569
lfemur -27.1344 7.18911 -18.6086
ltibia 45.3256
lfoot -18.109 8.86217
ltoes -18.8432
161
root 0.278187 17.166 -11.6217 13.771 3.02542 0.0791713
lowerback 5.24387 -0.856188 -1.50171
upperback 1.59209 -1.18601 1.82044
thorax -1.23216 -0.593461 2.7885
lowerneck -17.3366 0.151082 -3.20023
upperneck 28.039 0.766835 1.46594
head 12.0872 0.192629 1.21662
rclavicle -2.68359e-015 -2.78299e-015
rhumerus -15.6258 -4.40867 -81.3837
rradius 33.8508
rwrist 25.3734
rhand -19.3093 -24.3428
rfingers 7.12502
rthumb 7.00656 -54.2069
lclavicle -2.68359e-015 -2.78299e-015
lhumerus -8.5958 -10.017 87.0936
lradius 28.5122
lwrist 16.0938
lhand -28.1677 -6.08457
lfingers 7.12502
lthumb -1.5479 23.8896
rfemur -22.1342 -4.94312 19.5624
rtibia 40.4263
rfoot -20.9934 -10.7724
rtoes -10.9069
lfemur -25.8296 7.599 -18.611
ltibia 44.0724
lfoot -15.935 6.78162
ltoes -18.8455
162
root 0.271954 17.3489 -11.4568 13.413 3.2315 0.234481
lowerback 4.53729 -0.893457 -1.58801
upperback 1.60051 -1.23609 1.73176
thorax -0.826499 -0.623666 2.73367
lowerneck -16.632 0.095079 -3.29044
upperneck 28.3241 0.654265 1.58096
head 12.0577 0.144754 1.25735
rclavicle 9.54166e-015 -1.43125e-014
rhumerus -15.7268 -3.54799 -81.5101
rradius 34.4256
rwrist 25.1563
rhand -18.992 -24.1376
rfingers 7.12502
rthumb 7.31286 -53.9912
lclavicle 9.54166e-015 -1.43125e-014
lhumerus -8.58368 -11.231 87.094
lradius 29.2004
lwrist 16.722
lhand -27.9704 -6.22228
lfingers 7.12502
lthumb -1.35735 23.7531
rfemur -20.3943 -5.26591 19.2972
rtibia 38.7018
rfoot -18.6116 -9.46524
rtoes -11.1931
lfemur -24.5529 8.01938 -18.5535
ltibia 42.8422
lfoot -13.3681 4.68999
ltoes -18.6892
163
root 0.266847 17.5421 -11.2903 13.0235 3.37891 0.352973
lowerback 3.8319 -0.908209 -1.6473
upperback 1.64872 -1.25327 1.64174
thorax -0.382949 -0.638266 2.66006
lowerneck -15.8868 0.0362538 -3.39051
upperneck 28.5482 0.532272 1.71276
head 11.9958 0.0940135 1.30416
rclavicle 1.41137e-014 -9.93923e-015
rhumerus -15.8299 -2.82723 -81.6267
rradius 34.9879
rwrist 24.8722
rhand -18.6297 -23.9883
rfingers 7.12502
rthumb 7.66257 -53.8295
lclavicle 1.41137e-014 -9.93923e-015
lhumerus -8.56751 -12.3393 87.0751
lradius 29.8959
lwrist 17.3461
lhand -27.7116 -6.34166
lfingers 7.12502
lthumb -1.10739 23.6352
rfemur -18.7404 -5.49941 19.0359
rtibia 37.0866
rfoot -15.8903 -8.16165
rtoes -11.1825
lfemur -23.2935 8.38931 -18.4388
ltibia 41.6119
lfoot -10.3661 2.72117
ltoes -18.4587
164
root 0.263293 17.7432 -11.123 12.6075 3.47191 0.44102
lowerback 3.1387 -0.903723 -1.68052
upperback 1.73104 -1.24255 1.55122
thorax 0.0868237 -0.639342 2.57057
lowerneck -15.1064 -0.0191449 -3.48427
upperneck 28.7071 0.410725 1.84368
head 11.901 0.0441494 1.34911
rclavicle -6.75868e-015 2.38542e-015
rhumerus -15.9443 -2.22964 -81.7301
rradius 35.5482
rwrist 24.506
rhand -18.274 -23.8375
rfingers 7.12502
rthumb 8.00586 -53.6659
lclavicle -6.75868e-015 2.38542e-015
lhumerus -8.5737 -13.3268 87.0432
lradius 30.6314
lwrist 17.9436
lhand -27.4577 -6.44663
lfingers 7.12502
lthumb -0.862134 23.5314
rfemur -17.1852 -5.64767 18.7797
rtibia 35.5799
rfoot -12.8329 -6.98407
rtoes -10.8234
lfemur -22.0554 8.6447 -18.2762
ltibia 40.3785
lfoot -6.93303 0.987211
ltoes -18.2179
